<svg width="46" height="46" viewBox="0 0 46 46" fill="none" xmlns="http://www.w3.org/2000/svg">
<path d="M19.0908 3.126C19.9187 -0.98782 25.7236 -0.98782 26.5515 3.126C27.1189 5.94563 30.4263 7.16467 32.6508 5.37405C35.8962 2.76155 40.3431 6.5401 38.366 10.2303C37.0109 12.7597 38.7707 15.8464 41.6113 15.9226C45.7558 16.0338 46.7638 21.8229 42.9069 23.3629C40.2633 24.4184 39.6521 27.9284 41.7798 29.8359C44.884 32.6188 41.9815 37.7096 38.0494 36.3787C35.3544 35.4665 32.6581 37.7576 33.0773 40.6037C33.6888 44.7561 28.2339 46.7667 26.0665 43.1877C24.581 40.7346 21.0613 40.7346 19.5758 43.1877C17.4084 46.7667 11.9536 44.7561 12.5651 40.6037C12.9842 37.7576 10.288 35.4665 7.5929 36.3787C3.66081 37.7096 0.758345 32.6188 3.86257 29.8359C5.99023 27.9284 5.37904 24.4184 2.73547 23.3629C-1.12147 21.8229 -0.113456 16.0338 4.031 15.9226C6.87163 15.8464 8.63147 12.7596 7.27636 10.2303C5.29927 6.5401 9.74611 2.76155 12.9916 5.37404C15.216 7.16466 18.5234 5.94563 19.0908 3.126Z" fill="#BC8D55"/>
<path d="M20.8415 10.3022C21.3934 7.55962 25.2634 7.55962 25.8153 10.3022C26.1936 12.1819 28.3985 12.9946 29.8815 11.8009C32.0451 10.0592 35.0097 12.5782 33.6916 15.0384C32.7882 16.7246 33.9614 18.7824 35.8552 18.8332C38.6182 18.9074 39.2902 22.7668 36.7189 23.7934C34.9565 24.4971 34.549 26.8371 35.9675 28.1087C38.037 29.964 36.102 33.3579 33.4806 32.4707C31.6839 31.8625 29.8864 33.3899 30.1658 35.2873C30.5735 38.0556 26.9369 39.3959 25.492 37.0099C24.5016 35.3746 22.1552 35.3746 21.1648 37.0099C19.7199 39.3959 16.0834 38.0556 16.491 35.2873C16.7704 33.3899 14.973 31.8625 13.1762 32.4707C10.5548 33.3579 8.61987 29.964 10.6894 28.1087C12.1078 26.8371 11.7003 24.4971 9.93795 23.7934C7.36665 22.7668 8.03867 18.9074 10.8016 18.8332C12.6954 18.7824 13.8686 16.7246 12.9652 15.0384C11.6471 12.5782 14.6117 10.0592 16.7753 11.8009C18.2583 12.9946 20.4633 12.1819 20.8415 10.3022Z" fill="black"/>
<path d="M25.3574 23.1135C25.3574 24.532 24.2219 25.6818 22.8212 25.6818C21.4205 25.6818 20.285 24.532 20.285 23.1135C20.285 21.6951 21.4205 20.5452 22.8212 20.5452C24.2219 20.5452 25.3574 21.6951 25.3574 23.1135Z" fill="#BC8D55"/>
</svg>
